<mxfile host="app.diagrams.net" agent="Mozilla/5.0 (Windows NT 10.0; Win64; x64) AppleWebKit/537.36 (KHTML, like Gecko) Chrome/130.0.0.0 Safari/537.36" version="24.7.17">
  <diagram name="Trang-1" id="D1yjljKTTbuLqrRo_VMa">
    <mxGraphModel dx="1434" dy="738" grid="1" gridSize="10" guides="1" tooltips="1" connect="1" arrows="1" fold="1" page="1" pageScale="1" pageWidth="827" pageHeight="1169" math="0" shadow="0">
      <root>
        <mxCell id="0" />
        <mxCell id="1" parent="0" />
        <mxCell id="etIaXve5JDlNF0k7-5fJ-1" value="" style="shape=image;verticalLabelPosition=bottom;labelBackgroundColor=default;verticalAlign=top;aspect=fixed;imageAspect=0;image=data:image/png,iVBORw0KGgoAAAANSUhEUgAAATAAAACmCAMAAABqbSMrAAABIFBMVEX///8uQnc3uug4ToUaKU0vQ3k5T4cltucZKEwzSH4etefD6Pf2/P4fN3Hd8vs3TIMoPXFfxewOLWwoPW7m9/1Dvem65PZtyu14jvug2/Jtuf+eprxsgulnebwgMFkdLVMsRYByhdBgca/Q7fmP1fFrfcYuQXFcbrFpercjNGDAzv90hstnrPGZ2fJEZ6Ffxuzu8PTEydgiPn2yuc2uvfVDWI5/0O/o6vBfb5rW2uVyf6Vyg7ljdauYp96Cksm8yv9Wi8piouWEjaqRm7hLXo/HzNpgcJo7T45jedmisulTaLttgNFKXZsAAD12iucAHk+2uMFZZohNerZbldaHnP1LYKxMXIgGI1YADT5rdZNGa6aGmfNEWJ8FHESAiJ9yh+cQtF41AAASAUlEQVR4nO1de3/aRhZFCEkWCCTeIU7ALdQpXmNibJG4ceI8nLRJ3e5ukmbb7nb3+3+Lnced0cxoJASx4wA6fyQ/GyGk43uvzr1nJAqFHDly5MiRI0eOHDly5MixdXh4dnz8+tFtH8XaYPfx3gzj8tXD2z6UdcCJv+f7Joa/N9v1bvtwvnacPZ5RtoCy8OS2j+irxsOXIl2Estnl2W0f1deL3b09MwZ/72VeyrQ4vpzF6SKM7e3e9rF9hXj0g5qNAvbC49s+vq8MD1/N3ES6SCl7k5cyASemUrxcy3DlgHPzUsZxdqlko2sQWNJv/T0zlxgYseIFdGG4pi3lZfj6to/29qFKCd8yRMiVzZ/9sOUd5rGtFi9DhRx+e7NtbjAfvZGz0Y7ThUuZTOn2dkuoD5ISzvZ1dOnycju7JVVKKMUrnbLtK2WvZSlha4qXnJdqKduubilNSmQMsm3qljy1D0rNxuS8fLwlpewk3FsqGxMpc2fb0C2dvVk+GyOoEmPzBz9KNuqVV3qQ2RJll5t9vdyVZ4QZi5dCmcSYG260T6I0QivQFWNsttHCXwmw1Qgz5Dq20WVMmdovXcEw1MK/0YQ1VBdtecp8W95FdbMJM9TR/ZJ1P/72TSdMHXAtpSwUuojm3XzC1EY6cynTv2+jCfMaEClqIcpAmaWGF1xjN5qwQiOxFi3ORoVjVvs2mjAcYRaE01J5qUgJYlwaRpCFMK9N0PoyZ6jBkHx+faWGBBPmMnIUEtKmFvoM/vFBkIGwVrmI4NRWOd5rQYUewGcRBmIiMc3UbFTSl27WvPfNehDmfC5hvuuykp2hlMXWXEBGbxFh4cEzNzrx9FKWIEGaP30XbA1hvn1xEfpYWbiaCJJKmSolaAQGAYqu7SCsYAWIIPfJxWX49tyPSpm2RmmykbwQvLsfCIQ1Fpgh603YMclJ13YvD05RLWMZFtOkVnLxMoJ7fyOEBT+HOMDeLPjI9SascFyldct9ehCGz2yWgbFSFQdRXsZ/rjhhWIZZwR+LPnHNCSv8MjYsIsHO/fODpy5PtJjE0MScQWoXIezXb3E6WsHf/7HoA9ecsJPfS4OmRcSFaZ8eXPpR0UpbswlhaDTvUMIMl6j8cemvfy5y2tabsJPZeKdU6geUMpSTlDAmMRKCDKTEPVTsMWF37pPospqlUmnHulzwketNmO/7fcRYaUwlGF3H6h+5fkopI/GHpcQdenU0rvAvrCbe0c6+vcgEWW/CZqhS4cAolZqolEESWocvQpeXMh1dSEo8CAhhd6DYG30cXn3XXjjTX3fCcAHHabnTp6WMEHb37nPULkG3JNuOVEo071DCqJQwrDGma7CPN91swhr4WmjbLkmnvkEpw4TdPXyPtL/ULdnMIkFSghFGo6s5IDFKr6uLFj6tOWEs5/YHrJShunX0AjF298VRJGQJmOC/831ACPsIUoJk4xgi0V2lNaoQdIbsZ68y6rbL5XJxOqroTszrzOsOebnj8bfLm9R6c7yHdneC99rq4P3Tz9QS1urNp8Vy2anPO6mTOjxAJNdCKGWDJqbHt97jILv7wfbV5huxZgFhhg9SggSnbUPGrkDYpOxglNuwxbxIzonAaU9UyrxR9LpTnLc88vayuMfh1Ik2afcKPbxJuZ5EWK0rbF7spkQ/GVHTiT7NS5AYvvkcM3bkKwOe4N63ASWMRJdBshEVL+GCsDxhIzhYOoX1RuWiBKc4lHYwFOgkr4+KsT3Ku0BxQ/6f6gnz5sonlkdJ+cpNEFKjbAPyElPm2h80hFmYKERY8ID81MRv2BnT4gXif2nCJhJflbZMB9lYTLde/HWVsGnCJvoIa8U/0WknMOZxEwQK+34JMTAYWyjxfPfoMJEwSUpI18+lCePxRY+xrSUjqiuVsm4DaY/dBL70hGn4KrK/npYwyxc0qm1iiQHdko9TVUPYz3SVD0gJma6lCWPxxUyJDv3ZKbbr3Sk7F2fK3x0RhKEjbOIkbaIjzGN/Iac9n0xGdbZ9O5Ewl/eOUMrGUSkztYRJUkJQs3tXyxOm8lUozB1MV4++PoTsclgZq7PT63aGw2FlFIUH22ONkVwcVdAmHSHedITN4QPakPY12N6ZJxJmm/JE344khhFLyY9UqAZEuI2h2WRj6uUnrr0yRJBQghEHvWhzyNhuQThZdOo8/yo8QuBXXfhxxHc4SiGsEqeno/yNYoThM+bzB1soZU0r7hrhzSyQEi6XEuSFFUbUUMCjjMMYzqX6AYRIbIjbe3WJsBr8CTriHp1EwtqacALGpIOSCAtPnyjmJO2WSqRbisEaYylRYlIComuVmT6Lr27a9vTwKR3ARlG+hrVFwkZKfImMxQkbloUXOOZSyMYIYyaIaE5K3ZLEFhQvKiVsPrlYxQRh8ZXKV6HlRAkC5HXkLSoCpSwgFVnQTSCsq80+j27RK8RRJSP9Zwfn4dPQZ2PneCkT+OJTCW4oBb/JJkjW8Q6LL211jRFGanJdy4aY5HAVHSk7oX+bGGFwiVQCjPGoy8kTZoIcHZyiNggWhzGJwbslGmaWZQhTCY0JcoQIq35KP384vWKrk3Y1IvCGlQmSFlFN8igb6jtEwjoCvYsJgytqLJR6yf35SZXWLf/tQWg/wQ/ZEYOMlrLBOKDJOCbZKPZBxo92ZIJgvRE8zjaiLs7T+Rr2ukVRRBHCaPjEUkUkjJawsp6BGGHwR6tPFcAfSStef6Ea1URsgQkiTPShlJFrJvk3JiVkE8Qw/pXRBGHQhX3Bm7RlxQmEDfXhIxJG63UxI2ET+UMUaIXF69+ZRnX98PQi9AWhYAuDHwrcBwlSwohMkJD+OPgro80mEaGeXTF+HiJh6nmIhNHqE5PpCYSNYp8jfab6l0E4nvWjMZh7/pRyJE30bR+12BT9fVmoggmCCSMmCI7CjEZudFTqxdvTts4iYeo7viRhSE4MiEYl5qQPfXToyt2S6e43m819XyhegWGwmX5w342un017lmmpQARlMOCJ3TdOTKHoX3uETVIJK2sIm6HzVyb6KIAOP9h8og/jaQRTlBLvrgzRBGGtuJHVBCHHTP+Ty1iXv9rujjo1j8mKjDVsOcJACbb1KGqU64xPDndwKbOYCXL43tebk6oJ8mtoKK14VsKcXgeEmCiaWLPojIYQeQJhNa1u1RR9JyNhXAh7OuiOviFpVIvWLWKCvPjTipuTsDQzlEwQbEnS66e5BGFYHEBjLTIAAVaPrugCYQmqNN6dltXYSCCsJXX2WdAwVI2KS9mfdKLPzUnDdX3fd9mlUTFBlFY8W2tExSIbzvDzA2kq1jWBsAKwmULYUN/VJBCW0EilEgZPbWIaFSaHZKJ/97kZW4HYDCITRLAkhVY8I2E1gZ/oiEGailVKJAw6a6Xqt4SLp6fndFTUEwY7nCxDmKxRd8Y0oswPWUwQKiVYK76CCQLTAl744dxFiS0SVtEOXqThwjROuUKjSBgbBmV2SWGmTwu7TcZgUMpcbE5qZ/qYsOA7IiUCYarP1nYuN3FlEwvokDQR5gmEgeaQM47tQnQdZc7ZyEwzD2MXZaULSvImuQnC220hL6336SYIkhI78VZ82Zn+XCr8mvFBV7w0Qi/jxEeybI9MxwkuRo3NtTWEsYF2UaoC07KuK2KEudEYDJ22MNH37VAbYf8OhWyU5ogrEMbqLhQm6AW7zKLowPkwQrkrQlSHV5vwNortscOFCRJxBa9ViYb6upk+ayedeoVS7A2xq6vtI1UThEoMIxqDJZsgiiVJL6aWvQph3AeiI1B2dvNOp4MnFjJhnA5sKyFpKXRRfI/16Hdkk3QTBIoe3eO022Vv0DPGTBBJcFFVNoClnKoJcqWTEvQCuoIJEp0AK+WR0pcGFlyrzZMGDHyPrYQNkozcuvgxmv3FCEPx4Ztyuy1IDGVEHQp9kFi8gs+4dWYiFn5P66sK4raewFi0x9pyhCUZv4mukR+enrumZqJPS5kKZXUTfVvz3efc2ABRVSakqE50rBtQY8yRTBDKmH6TpMUovbibXu5qL5Ts1plTW12jr53oE77AkhQXCCxvgjgSYezKRscDnsiI0+6QzBTbp05bSqKRKFxhhyORMac9TFL67JjmMsVOPeEqCSbI04Pz8FnI8pKqMhupshKoMhE0G11RSvznW9EEqS4wQbwugdSN1OjvpsBKbV6kC6CKc0QhfUkiuDOlrzvl9qilXXHWGrVhE2fa8aTWqDYle5SPqtVju3TK9VGyjn3VIO72kX9+8BavPF9gTtIZYQmKF1wPmswEIWPqwL2WJzzVKp1OJW1p2xBvQCcaCWsaPbRFpwIOu0BY6meyNyTiVdUia/TNtxehee7qJvo7/SZlJiAmiLy6yRVMkAAH2Kcv/7Ci2uJFoJQwrYGwLH4hGtX2w2fmuXgboLSUszQY9PuDUmRJirf9UcLuZzVBrh+g1tPikejhBY5xNpz9vsPX6IcXKMo4GZI5yUwQWUoE3AQJ8MIdLP7/+u81HNSSACGXNqOh6nSBZZwFZ3v9SKO6529DmBSK0h91SyTKdvAQR5ISDyIThC2w26m+/PyjWhI03/QLuijoZVjr/S+JS98lgQO3G9Fq79uuVMpMf3+M0GT3a/ExNZgg3wgL7MYLTZDrR31h+NRSup3lMEOnL6wFBm2F1+jLpYx5IJGUUEyQqBW/6ac7eVNlRD2MTfqHbYUaUMbX8OmzqLBDKTOpCaKb6JvR408iE+QKpvp8gd1NE1Z35LVMoHrLUQnDDEqMgddxHTWfmiCosLMFdJbJTJDQVW8DtG3mVkYmCLkviy/pyXLrzOfBm5JTj9hpwXAiYmNI+BPqFYyIriMjCw1RozJz0n8PE32XLeXEc3/fh0Y8uAcmCFurL7fiN/soGTa7mVAR0WJWbKTCYEDk1Ok9JHi8RTdZIFuzocELO5Qyyo9NTJDD96buWR/cBCFSItaK3yhh3AV2nDZqb9psAiRkKe+knSLqgep8HnY9dzc1hJwTbzdywxd6E+QnwQQJBEsyun7ebITFBhEUooafcCdb6qc1q15WAJ3pxxbQoTLlYnMy+U6Qn30SXjSTpTniDT/dSTcvU27c6BTjlJWzO2mpn85MECYoxIk+KmXpJghbHSy14jf/OKzYoq5ybEniNHa7kmZdyUrAd4K48XabSH/XDfUmyMfLaKpfkm80+hKESfeeoRKlm12JIzMH6ZDrevgWjKjlySGYkxbNVE2EmUk3Gn2xR/q1eqjel8uo8k8nCVwM5/ViGW1SrHe1t1yuBp0JgiRGiU/0E0wQ3VQ/qwlyXYfutWot/QobYZMFWyz/qRBhvi3fbtTnk0PVBMHSi1mSTTkbM46o1xow03965Jtm0u1GMsjjYgaxG42C3x5knemvNbgJIjyoiN1uRM3JmG7VWZJLmSDrjQYzQewnPnuwstotSZxRKSEXrx+vgq0h7GUVP6vcPjeT1+gjVcYp06xuiu4Eaf7ve2yCWJv9NRc/NAJ4UNFF6IcJ5iSKMgyjGb/RCEkJboLgpwxUq5v+TSrHYZU4bZdP7fMD4TZAWGcBE/3+eDzux6f6qgkSVLfga1S83UaVrNH3Ly9OBRNEWsrJId5oJJogD9B7gsanTQ8viocvSV7a7hMgLFbKKGc77C5JtlZfNkGq5vZ8FdTZp0Zg4duNaCIqT8Oy3f1xf9Af78sPXOAmCH32YWO7vmX+xK3yh1e4L7gJItwIwm0QdtufaIIEje37OrtX1SpIMOsQP6jIp3mZ8KBbmOnDbX/VT9v43a+P/qCljJogz7k5GUb3zoTEgbTcyATBk4uqtdHfzJOCs090+RO9rYHfbuSGZkjYgpsiuQmyPVIiESdBNZroH/7pC08JhuY7uhMEpMSWf0P6Q1zKYKKvmek3310F3DXaMimRhEdvcCnziTmZYoLgJebVzW60M+M1KWX4AWKpJkhQ/WGLi5eM3SopZUehbqZvfTwiD/TYkj4oG7yXNC+1JgiZSrjbKiWScPaYqDIdYfjauM3fH5+EY5OUMokw4z7pg95sXR+UDbiUKSBSYhv7oGx4iAeyMnIpkQ7SLQkB1tjmPigbTtxqwOnalu8+/yx4u2YVoxF8yvugjHj0enf35CxPxhw5cuTIkSNHjhw5cuTIkSNHjhw5cuTIkSNHjhw5cuTIkSNHjhvA/wGtt/P8EiTFvQAAAABJRU5ErkJggg==;" parent="1" vertex="1">
          <mxGeometry x="80" y="160" width="146.5" height="80" as="geometry" />
        </mxCell>
        <mxCell id="etIaXve5JDlNF0k7-5fJ-2" value="" style="shape=image;verticalLabelPosition=bottom;labelBackgroundColor=default;verticalAlign=top;aspect=fixed;imageAspect=0;image=https://upload.wikimedia.org/wikipedia/commons/thumb/d/de/AirflowLogo.png/800px-AirflowLogo.png;" parent="1" vertex="1">
          <mxGeometry x="360" y="160" width="207.12" height="80" as="geometry" />
        </mxCell>
        <mxCell id="etIaXve5JDlNF0k7-5fJ-5" value="" style="shape=image;imageAspect=0;aspect=fixed;verticalLabelPosition=bottom;verticalAlign=top;image=data:image/jpeg,/9j/4AAQSkZJRgABAQAAAQABAAD/2wCEAAkGBxMSEhUREBMVFhUXFxUYFhgYGBcVFRcYHRkdGSEYGBgYHiggGBolHRsYITEhJSkrLi4uGh8zODMtNygtLisBCgoKDg0OGxAQGy0mHyItLzUrKy8uLy0tLSstKy0uLS8vLS4vLS0tLS0tNS0tLS0tLS0vLS01LS0tLS0tLS0tLf/AABEIAJcBQAMBIgACEQEDEQH/xAAcAAEAAgIDAQAAAAAAAAAAAAAABQYEBwECAwj/xABKEAACAQMCAwMHBgwEBAcBAAABAgMABBEFEgYhMQcTQRQiUWFxgZEVMlWTobEjQlRicoKSosHR0uIIM1KyFhdDYyVTZHPC4fAk/8QAGwEBAAIDAQEAAAAAAAAAAAAAAAMEAQIFBgf/xAAtEQACAgIABQMDBAIDAAAAAAAAAQIDBBEFEiExURQiQRNhcTKBweEG8COx0f/aAAwDAQACEQMRAD8A3jSlKAUpSgFKUoBSlKAUpSgFKUoBSlKAUpSgFKUoBSlKAUpSgFKUoBSlKAUpSgFKUoBSlKAUpSgFKUoBSlKAUpSgFKUoBSlKAUrjNYo1GLf3QkUv/pBy3wHSgMulYWpavBbjdcTRxD0yOqfDcedRVpxzp0rbEvYC3gC4XPs3YzTYLFSuoauc0BzSlKAUpSgFKUoBSlKAUpSgFKUoBSlKAUpSgFKUoBSlKAUpSgFKUoBSlKAUpSgFKUoBSuM0zQHNK8bq6SNGklZURRlmYhVA9JJ5CqhL2iwuSthb3N6QSN0MeIQR6ZXwvvGaAuZYCtdz6i89zJZaVJGjE77y8819m7O2GEdHfHuXn4k1gQajPrIZ7pDbafEWDRrJua6dTz3SLjMK457eR8Cccsrh0s0jiKzt7eFSAuEHeMMZycABTgj08+XhXJzuJwoTUerX3N4w2SVtwTZwEOyG4mPzprgmeRj6ctyX3AVnXWlQSLskhidT4FFI+7lWXk+NY9lMzruZduSdq9SBnqT6T19XSvD5WffkWO1Sa/ctRiktEAon0o77YPPZfj22S0kP50DNzI/7ZPsq8aPq8N1EJraRZEPivgfQR1U+o4NRxwa1/wAS65Bp19HPbErKxVbiFUZVuIyRnHLa0y5BGOfh44r0nBOMWXNUWrb8/wDpDZWl1Rt/NAa1hdXl1qM5ZJbizjRT3MaMFkJxnvbgDIwThRGeeMnlzzLcM9olq1unl9zDFcruSZGYKd6MVLAeAbG7316OvIrsk4xfVELTReqVWv8Aj7TPy63+sWs/SOJLS6Yra3EUrKMsEYMQOmTipzBLUpSgFKUoBSlKAUpSgFKVj319HCjSzOsca43OxCqMnHMnkOZFAZFKrx45038vtfrk/nT/AI5038vtfrk/nQFhpXnDMrqGQhlYAqQcgg8wQfEEV3oDmlKUApSlAKVxSgOaUpQClcUoDmlKUBXNb4k8neTehEUKK7vjczbjtSONR1Zm5c/QfSDVa0Tj2Tyu6W/McMcNv33dp5xjA2kiR/xnw6ABeWSR1HO1cXaL5TbSrHym8ySI8v8AMibegOeWN3L2E1qjTdO8rv0gnMgDSvczxPC0R2IFxHI7f5iB1iXC+byJ5nGILLHB7fbRlLZcNP0l9TK32qgiD51tZE+Yq/iyTgf5khHPB5AH3Vn6tKbuX5Ntj3UKIrXbp5pWNs7YI8fNZwCSfBc+JFTU0u4+qq3wjcBDdwS4Fx5RJLJn8eJv8uQH/QEAT1FSDXnI8YdsrJLtBdF5Jvp60S9zbIIxBEoWMBUVRyAUeA91dxGEVio8CfgK7QSBgHHQ8wfSPSPbXrjPKvJW3Tss9/y+pOlpGHpF13sEUuc70VifWQP41Dca6TPcxCKGZolJO4JyZzjkC2eSZ5n016cDMfJFQ/8ATaSP3JIyj7BVgqSdjxcpuHw3oxrmj1IvhnTpLe2jhml71kGC2Me7rk46ZqD1/SZZ5BK+z8C8DIO7BbeZUOFc8xhQMnoScY5VcK6sgPX0g+8Upz512u35YcNrR2CjwHU//jXzRx9Z/wDis8aD58i4HpLAfxNfSsj4BJrQMGLvXiy81WUt6sRDr8VHxr0P+KKU75v41/JBlS5YbNjw8M2igL5NCcBRkxrk4GMk451kdi+npv1C6jRUR7juowoCqFjH4oHgS32VmSAkEA4ODg+g+nFU/TOFb63TurfVJY0yTtVMDJ6n53WvouRQ5JKCODiZKTbskb0pmtLfJGqfTE/7P91R2uWmswQtLFqk0uwFmXmjbQOZHM5I9FU3jWJb0X45dTekzfVK0NwsNSurZLiTVLlC5bCjn5oOM5J9INS/yTf/AExdfAfzpHGsa2kJZdUXps3FStO/JOofS918B/OnyTqH0vdfAfzrPpbfBr62nybipWiuItf1jTYWdLwXEbYXdJGvexE+IPiDjxz16eNYPD1nrF0gnuNSuIVfmqh23EenaCAo9FafQnzcuiT1FfLz76H0HWr/APEHqXd6asI6zTIp/RXLn7QtQv8Aw7e/TF7+039dYGq8By3W0XWo3E23O3vMvtz1xubl0Hwrf0tngj9bT5K72SaJFN38s8SSKNiqHUMATkkjI69PjVh440K37uCCGCJJLi4iiVlRVYZPMggeyp/hbh9LGEwoxfLlixGDkgDGB7KqvaA9xLfWsFkSJY1MgYHGwk43E+GAvWrUq+SnWupUhc7MjaftR9AwxBVCqMBQAB6AOVetaQi0fViBv1iYHxABIHvLD7q9PkfVPpmf9n+6qvpbPBc9ZT5N1UzWlfkfVPpmf9n+6uslprMI72DVHldeYjkUbX9XMkZPT+IrDxrF8BZlLetm7KV84afxVrmqTN3dwYEXG7YO7RPVyBZm9WT7qsg0fVPpmf8AZP8AVWIUTktpG9mRXB6kzddK0r8j6p9Mz/s/3U+R9U+mZ/2T/VW3pbPBp6ynybqpXz7xMms2sJnTU5pVX54yVYDPXGTkc6ytFtdVngjmOrToZFDbcE4B6c93orX6E98ujd5NfLzb6G+KVpX5H1T6Zn/ZP9VPkfVPpmf9n+6tvS2eDT1lPk3VStK/JGqDprE/vU/1VN9nnF155Y2l6mVkk2F4ZlAG9R1BwBnlk5wD5pzWk6ZwW5Ikrvrseos2dVM1F8a0ufxtPkCn1idSfZyI+FWvUb5IInmlO2ONWdz1wqjJOB1rVNxezyzx65KpjhQrHFD+OLV8hpXA5bjuD48Agrm58oqiUW9N9F+SxDubAFVLiyxR7uyBYoZHkRyDt3xBNxiJ8dxCjHXrVtFYmqadFcRmKZdynB64IYdGVhzVgehFfN8O/wChduX3T/cuSW0ZY9VQl5xTAjGOPfPIvVYVMmD6Gf5q+81jvww7jZLeXMkX+hmUZHoZkVWYeonnUtZaZFEoSNQAOQAAAHsA5VLy41T5m+d/bov3Me5kVwhE0Nt+G5NzeTxwzMzsOXXBap1JRIm6JlII81hhgD6eXKkxCocDHI1rPTPKW1KV7RwrurGBGP4G57khJY3A+a5PnK49BzyNWsTEfEbJyXR9/t+DWUuREunaTbx3UllMsu9JDGrqO93kHHzV5hs+ABqWTjzTiM+Vx+wnB94PSqhacDzS3LTRWU8E7uzNLPIhhhL53MgRiZmGTt6DpnFbe0zQIIIYoVjQiJFRSyqW5DGScdT1r0T/AMexrOrTT11/JF9Vo1Hx92h4tyLJXKudnf7SIwcZwrEec2AenT01VuxqzzNPOfxUCj2sc/cv21YP8SGo/hbS1HRUeQgfnEIv+xvjXbsms9ljv8ZJGb3DzR9ob416HhGBVjNQrX9lDPtf0nsnOJ9Ya1iV0TvJHkSJEzjLNnln3Vg6xf6tawvcXGnRrGgy7d+hwM46AknmR0rIuofKNW0626hGe5cfoDzf3h9tSX+ILUu700Qg85pUX9VfPP2ha6ORkTVjUWVsXFrdSckVfgvjk30xhaEIQpYEMWHIgYII9fWrJxDdd1azyH8WJ/iRgD4mte9jFl5085HQKg953H7h8at/HUbSwJaocNcTRx59CjLsfcFqxXOTp2+5VurhHIUYroUDSe0iaCGOBIIyEUKD52TjxODjJ61mf807j8mj/f8A51sfR9GgtUEcEaqPE485j6WPiayGuogcF4wfQWXPwzWFVYl1lo2lfVKT1DZrD/mncfk0f7/86ufBPEjX0bu8WxkYA4yVbIJ5Z6EY6esempvyyL/zIv20/nXspBGRgjwI5ipK4ST6y2Q3WQcdKGiB4yXvI4bcjPfXESkfmg72+xanpHCgseQAJPqAH3VBXf4TUYU8IYZJT+k5EYz7gxrtxxe9zYzt0JTYPa5C/cTWd65pmOVvkrMPT9U1O8Tv7CwV4CzBHeRVZtp2k4LDHMEe6qtcdptykjRNbxb1YoQCx84HB5g8+dbp0GMado8Zbl3Fr3jfpbDIf3ia+ZuFLU3F9Crc90oZvXg7j9gNc6ORZKWt9zrPFpjHfL2N/wAJJUFuRwMgdAccwPVmoHh5RJdXtx/3FgU/mxqAceosfsqduZwiNI3RVZj7hn+FQ/BcBWziLfOk3St7XYt9xFdN9ZJHGj0hJ+eh6cQ60bcxRxRGaeZtsUYO3cR1JJ6AZFR19qWrwxvNLpYVEUs7d8hwoGScBsnlWdoUPlHEEfitrbM59Ad/N+OHB91WPtq1LuNJnx1lKRD9Y5P7oaqF+RNTaizqY2JW605LbZrnhbtEN1cpbvAE35wysTggE8wR05Ve5pQis56KCx9gGa0/2Q2W+8aXHKONj+s3mj7C1bI4zmK2cqr86QLEvpzIwX7ifhVmicnU3Ip5NUFcoxR04HttlnGcANJulb2uSRn9XbXXU9cn8oNnYWpuZlQSSDcEVFOMZJ8eY+I61O28IRVjXooVR7AMVh9jsXe3GpX3UPMIUP5qDPL3FPhWL7HVWlE2xq1dbJy7Fb13iPU7KPvrvTVjj3BdxlU+cckDCknwNZHBHGJvzIrRCMoAeR3Ag8vHoa9P8SOpYjtbUH5zPKw/RAUf7m+FQnY5ZbYJpv8AW4UexRn72+yoMe6yU0myzlY9UKm0iz8aS4spQOZkCxKPW7Bf4mpe2gEaLGOiqqj3DH8KhOIvwlxZQemUzN7IlyP3iKlNWu+5glmP4kbt7wDj7cVd37pS8HN5fZGPkrlnxDqFy0psdP7+KOV494kAyV9RI54IPL01B6j2lXFvK0E9mqSIcOveHIPoyARW1ex2x7jSYGbkZN8zH9JiQf2AtfOGpTte38jjmZ52I/XfkPcCK5vqLG+52fSUpdYm/rK5EkaSgEB0VgD1GQDg1F8MR99xAWHS2tef6T45fBz8KmIowoCjoAAPYOQ+ysXsXi719Qvj/wBW47tD+ZGMj/ePhVrMl7Eijw+G7JSRsfULJZopIZBlJEZGH5rAg/fWq/lJ9Ni+T9TU90AY4bnaTDLF4K+PmuBywf8A7O3aw9Ut2khkSMgOyOFJGQGIOCfYcGuHlYteRHlmu3Y7MW0Ubs9vu+tMhi0aSSRwuerxKcKSPSPm+vbXtxxqjW1pJLGR3i7CgOcE715EDrnpj11B6Bqj6ZbR2t9ZXEXdAgyohmgfzid+9M4znPMV56ZqMWpajaJCWliiaSafzWCKypiPJYDJD8wK8kuE2z4huUdQ3v7f6yx9Rchzq+tarFcpZLFayTvH3n4NpAqJnG5y6jAyDyBJq4aLBKkSrcMrS5YsVztyWJwu7ngDA5+isLtAsJIZYtWt1LtCrR3CAZL2xOSR+ch874+ioTUuM0ZUFqyzyzFUhijbmxPiw6qo8Sam4twyTnGrHrST+V5MVz+WyV4q1Yogji5yyHbGPzufP9FRlj7PXULHCtvdaUAfNSdo9x6lnhZRn9JvtNSlr2cTMRcTX8qXRBDd2sZhRTz7uNXXIA9OcmpKw4A2zxTXN5NP3L95GhWONN4BAZti5bGeVdHA4RPGcNNaXV/dmkrEy54rmua8bqcRo0jclVSx9gGTXfIj5b7ZNR7/AFe4weUZWJf1AAf3t1bU4bs+5tYIvFY1z7SMn7Sa0tpelXWo3Ms0EJlbvDLINyqPOctjLHx51syPXdUaZrZdMBlRFdlEq+apOASc4546ZzVjFyKoTcW+vj5KWbRZbFKJYOz2HvtXvrk9II4rdT62O5sewr9tVD/EfqW66t7YHlHEzkfnO2PuQfGsvhvjR9GZ7W6s5Hu7mYzuqug2mQ7VTx9G7r+PVW7UdKv57ibUri1aGImNQDJG+0ABAPNbnkjwHjVe26PP7n1fYtVw5YJeC29lll3dgrHrI7v7vmj/AG/bUhdsJNSgjz/kwSy49bkRj7AfjUDwlquovaReS6eskSrsV+9Vd23kTgkeOaw7rR9ba98uS02NhV2d5GV2gYKnzuYPWrL4ljQioOa2u/VHP9HbKyU2u/Y2Lcxb0ZMldysMjqMgjI9YrW7dk+Tnys/Vf31ZPL9YAydLX14lT7s1WJe1KZXMbWYDg7SpZgwbpgjHXNTesxL+0k9eCKvGyqv0nf8A5Tf+rP1X99bC0qyEEMcKnIRFXOMZwOuPWedQtre6vIocaagB6BplRvep5j317d9q/wBHxfXp/OoI8TwK29WLf5NrMXLsWpdjpw84kur6YHOJI4R6hGvP94n4Vm8S6MLy3aBnKZKkMBnBBzzHiK1skupaRPmaJSbos3d5D72z1Gw5DZbHr9dXaLUNXYAjSxg+mVVPvBORUkeI4v0/fJaf37izCuVilD4PG94b1CaNoZdWmeNhtZSmQR6D5/OvDhTgFbKcTmbvCFYAbNuCeWc7j4Z+NZ/lusfRa/XJ/OsW513VI5Ion00B5iyxqJVJYqNxxg+A5861ry8Fy9kk3+TadeY1p/wSPHNxsspQORk2xj9dgp+zdU3DCEVY16KAo9QAx/CqHxXpGtXsSxHTWjCuHyJEOSAQOres1L6dJraRhZtLaRgANwlRCceJGTz9mKsrKhztkTwrPppLuc3fD10t1Ld2N6bdpQokGwN80AcifDlUfrvCmoXqLHd6l3qK24KY8ANjGfNxnkT8amPKtX+h3+vjp5Vq/wBDv9fHWjeM3slisuK0v4OOD+FksI2UMXdyC7EY6dAB4DmfjXHELh7qyts9ZWmYeqNSRkejcfsNd1k1l/NTSthPRpJ49g9ZAwTVQ1ngrXYrxbsxd9ICCrxMrIPzNpwQMZGMVmWRXGKjExXiWym52dzZtU/TeG9QtFaOy1IxRF2fb3YJyfEk554A+FZUWpavgbtHkJ8cSBRn1Ag4+Neg1DVvoeT61f5VvZdRZ+ojqoyat8pBa1wJd3kglvL/AL1gu0EpzC5JwACB1Jq4aHpKWsCQR5Kr4nqxPMk+/wDhUcL3VvoeT65P5VWOL+N761PcS2YtpWXcCziVtpJG4Acgcg9fR0rWFlFfWJtZTlW9J9iz2zCXUpWzkQQpH6g8h3n34AFZvEumNdW0lurhC+AWIzgAgnl7qgeyyBhZtM5JaaV3JOcnHm/eGqS1vXZop47W1tWuZXRpNqttKqDjPQ8uvoqZSj9Pml8kEoSd3LDujDTSNVEItxqmIggjCiJRhANu0EDPTlnNR/DHZyttMs8s3eFDlVC7Ru8CSTzxUv8AKWq/Q0v1g/poNS1b6Hl+tUf/ABqunjJ7RaksuS0/4JPiK/EFrNMTjbG2P0iMKPaWIqydk+lm30q2RhhnUyt6cuSwz69pUe6q1pnBF5fSJLq4SK3QhltUbcXYf+a4OMeoH4VtRVxyHSoMm5WS6fBZxMd1Q692dq4xXNKrFs60CjwrtXGKA4IqPstCtoXaWG3hjdvnMkaKx9pAzUjTFYAxXNKVkCqh2r6l5PpV04OC0fdj2yEJ9xPwq3ZrUH+I7Uttrb2wPOSVnPsRcfe4+FAYXYPp+y0mnPWSUKPYg/mxq59noElzqN2ejXAgT9GBNvL1bmb4Vjdn1kLbTbZWwv4PvGJ5Ab/Pyc9MA/ZUdJw1orEse4ySST5QeZPMnlJXj6eIRrzrrZRb+Fpb7Fhw3FIols/yhxM8nzkSdyPEbYRhfiUHxqw9vOobbWGAdZZSx9iLj73Hwq28OcPafA7S2KRb8bWZHMmAeeD5xxnH2VrftUPler21mOeBEh9Rdtx/dI+FTV5azOIRmk1GEW3sxy8sPybE4cQWOkxsw/yrbvGHTmVMhHtycVCa1xXqdpZpfzW1oInEZVRJJ3nnjIG3GM45nn6ame0TJs/Jk5G4lgtlx6HcZx+qDVa/xF3oSGzs05As0hA8AihF/wBzfCtuE4VWVGd90duUnoxZJx0kW7gfX2v7RLl4xGWZhgEkHacZGefp+BrWvDFut5xFPNtBSJ5ZPVlfwan27sNWw9CQWOkxk8u6tu8b9LaZD9pqmdg1kSt1dN1ZljB/eb71qlRy0V5VtfRfpX7s3fVxTL3rOq3HlEVnZRxPM6PKxlZljSNSFydoySWOBivC7+WYo3ldNO2ojO3nz9FG4/i+iumv6TplxLvu3iMqqE5zlGABzggOMczVK4+4fsFtwmnKJLmSRURY52lbGCT5u8g8hj31NwyGHOEK51NyfdtdP+zWfN32e/Z7rEmq6i15PGi+TQbEC5IVmY8+eTnBervrerXC3MVnZRxSTPG8rd67IiopC8yoJyScVrrsQ1e2gS4hnkSKVnUjeQgZQCMZblkEnl66vmtWel3biS5kt3ZRtDd+FOM5x5rjIzmo8yEYZ/8AyVt1xWkkv9+TMX7ej6nvs1r8nsPrpf6a9NF0O/kv4ru/S3RIIpVjELu5LyYGTuAx5oIqPi4C011DRRnn8145pcj1qwfHKp3s1v5ZbaRJnMjQXE0Akb50ioRhm9J54z44rrcMlg2zcqIalHvs0nzJdS30pSu6RHGKYrmlAcUxXNKAVxiuaUBxXyr2zal3+rXGDyjKxD9RRn94tX1XUVNw5Zuxd7S3ZmJJYxRkknnkkjJNAal4d4gsYLWCE3UQKxqCM9GPM/aTUt2Zut1qt5eIQ0cUMUMbDodx3HHvU/Gtgjhay/I7b6mP+ms2x02GAEQRRxgnJCIqAn0naBk1PO+U48pWrxowm5ruzLrjFc0qAsnGK5pSgFKUoBSlKAUpSgFKUoDivnjtunN1rEFon4ixR4/PkbcfsKfCvofFaV1Ds91NtWfU1W3cd8XjV5WHmjzUzheRACn3VpPfK+XuCydoDFNPeCLk0pitox/7jBMD9XNRva5oNhZaU7RWlusrGONHEaBwSQSd2M52q3OpUaHqVzc2pvIraOCCbvm7uV3ZmVTtGCoGNxBp2w8JXepxQQ2nd7Ud3fexXngBcYBz1f41zeE4c8alqz9TbbN7Jcz6EF2Iaf3en94RzmlY/qrhR9ob41VuE/8A+ziKa46rG0zg+pR3afetXnRNG1i2tY7WO3s8RptDGZ8k8/OI2dckmoPgjgHVtOeWRYrSRpAF86ZhgA55YTx/hVVYF/PkWa90+kevwbcy6IsnFqXHlNlLDbNcRwSSSuquiEvs2pzc+BJNU7jDh7UNX1CKaW1NvAqonnyRttUMWY+aeZOTgAeAq97da/JbL6+T+iudutfktl9fJ/RUGLVxPHoVMYR6fO/7MycG9kT2u3/c6ZKo5GQpEvsJyce5T8a79lNkINLhLct++ZvYTyJ/VAqD437P9a1BozI9rtUEiNHdUQk+llyzYxz9wqebSNZ8k8kS3s1Hc9yGE8mVGzZuxsxnHP21h8IvWJGha25bkPqLm2ZPZ5w1a3Vn5Xd20MslxLPNukjV22tIQoywzjaAceuvLjbVtN0R4JF0+EyvvKGJI43QKAM5xnnuxV70LTxb20NuP+lFGnt2qBn7K1l2s8AX+pXccsHc9zHGqgO5UltxLHAU+kD3V6WMVFaRCZUmpLcYnbh1ZO8AbextSzA8wTu55wfGqrx3oE95HHHZaMtqVcs7KbcMwxgL5hHLqT7qvkcOsqAotLIAAAfh5PDl/ortt1r8lsvr5P6a487eJ7eq46/P9kiUPJzoVr8n6ciSYzBCzP0xuALtg+PMn7Kk+zGyMWmW2758imZvSTKxk5+5gPdUQ/DOoX2I9QaCC2yDJFAzvJMAc7GdgAiZ645mr/HGFAVRgAAADoAPCtuFYNlHPZb+qb2xOSfRHelKV2CMUpSgFKUoBSlKAUpSgFKUoBSlKAUpSgFKUoBSlKAUpSgFKUoBSlKAUpSgFKUoBSlKAUpSgFKUoBSlKAUpSgFKUoBSlKAUpSgFKUoBSlKAUpSgFKUoBSlKAUpSgFKUoBSlKAUpSgFKUoBSlKAUpSgFKUoBSlKAUpSgFKUoBSlKAUpSgFKUoBSlKAUpSgFKUoBSlKAUpSgFKUoD/9k=;" parent="1" vertex="1">
          <mxGeometry x="710" y="140" width="254.3" height="120" as="geometry" />
        </mxCell>
        <mxCell id="etIaXve5JDlNF0k7-5fJ-6" value="" style="shape=image;verticalLabelPosition=bottom;labelBackgroundColor=default;verticalAlign=top;aspect=fixed;imageAspect=0;image=https://upload.wikimedia.org/wikipedia/commons/thumb/f/f3/Apache_Spark_logo.svg/250px-Apache_Spark_logo.svg.png;" parent="1" vertex="1">
          <mxGeometry x="750.61" y="350" width="173.08" height="90" as="geometry" />
        </mxCell>
        <mxCell id="etIaXve5JDlNF0k7-5fJ-7" value="" style="endArrow=classic;startArrow=classic;html=1;rounded=0;strokeWidth=3;" parent="1" edge="1">
          <mxGeometry width="50" height="50" relative="1" as="geometry">
            <mxPoint x="827" y="370" as="sourcePoint" />
            <mxPoint x="827" y="250" as="targetPoint" />
          </mxGeometry>
        </mxCell>
        <mxCell id="etIaXve5JDlNF0k7-5fJ-10" value="" style="endArrow=classic;html=1;rounded=0;strokeWidth=3;" parent="1" edge="1">
          <mxGeometry width="50" height="50" relative="1" as="geometry">
            <mxPoint x="230" y="199.5" as="sourcePoint" />
            <mxPoint x="350" y="199.5" as="targetPoint" />
          </mxGeometry>
        </mxCell>
        <mxCell id="etIaXve5JDlNF0k7-5fJ-11" value="" style="shape=image;verticalLabelPosition=bottom;labelBackgroundColor=default;verticalAlign=top;aspect=fixed;imageAspect=0;image=https://upload.wikimedia.org/wikipedia/commons/thumb/6/6f/Superset-logo.svg/1200px-Superset-logo.svg.png;" parent="1" vertex="1">
          <mxGeometry x="1400" y="160" width="307.69" height="80" as="geometry" />
        </mxCell>
        <mxCell id="etIaXve5JDlNF0k7-5fJ-12" value="" style="endArrow=classic;html=1;rounded=0;strokeWidth=3;" parent="1" edge="1">
          <mxGeometry width="50" height="50" relative="1" as="geometry">
            <mxPoint x="1290" y="199.5" as="sourcePoint" />
            <mxPoint x="1410" y="199.5" as="targetPoint" />
          </mxGeometry>
        </mxCell>
        <mxCell id="etIaXve5JDlNF0k7-5fJ-13" value="" style="endArrow=classic;html=1;rounded=0;strokeWidth=3;fillColor=#fff2cc;strokeColor=#d6b656;exitX=0.5;exitY=1;exitDx=0;exitDy=0;" parent="1" source="etIaXve5JDlNF0k7-5fJ-2" edge="1">
          <mxGeometry width="50" height="50" relative="1" as="geometry">
            <mxPoint x="500" y="260" as="sourcePoint" />
            <mxPoint x="810" y="310" as="targetPoint" />
            <Array as="points">
              <mxPoint x="464" y="310" />
            </Array>
          </mxGeometry>
        </mxCell>
        <mxCell id="etIaXve5JDlNF0k7-5fJ-14" value="" style="endArrow=classic;html=1;rounded=0;strokeWidth=3;fillColor=#fff2cc;strokeColor=#d6b656;exitX=0.5;exitY=0;exitDx=0;exitDy=0;" parent="1" source="etIaXve5JDlNF0k7-5fJ-2" edge="1">
          <mxGeometry width="50" height="50" relative="1" as="geometry">
            <mxPoint x="440" y="420" as="sourcePoint" />
            <mxPoint x="1040" y="190" as="targetPoint" />
            <Array as="points">
              <mxPoint x="464" y="80" />
              <mxPoint x="1040" y="80" />
            </Array>
          </mxGeometry>
        </mxCell>
        <mxCell id="6nbwy6uth3H11U0K1fNY-1" value="" style="endArrow=classic;html=1;rounded=0;strokeWidth=3;" parent="1" edge="1">
          <mxGeometry width="50" height="50" relative="1" as="geometry">
            <mxPoint x="980" y="199.5" as="sourcePoint" />
            <mxPoint x="1100" y="199.5" as="targetPoint" />
          </mxGeometry>
        </mxCell>
        <mxCell id="6nbwy6uth3H11U0K1fNY-2" value="" style="endArrow=classic;html=1;rounded=0;strokeWidth=3;" parent="1" edge="1">
          <mxGeometry width="50" height="50" relative="1" as="geometry">
            <mxPoint x="580" y="199.5" as="sourcePoint" />
            <mxPoint x="700" y="199.5" as="targetPoint" />
          </mxGeometry>
        </mxCell>
        <mxCell id="YAuSy4Aw4ClBhr53H7r2-1" value="" style="shape=image;verticalLabelPosition=bottom;labelBackgroundColor=default;verticalAlign=top;aspect=fixed;imageAspect=0;image=data:image/png,iVBORw0KGgoAAAANSUhEUgAAAUcAAACaCAMAAAANQHocAAAA8FBMVEX///8AAADo9fVRUVHdAKH8/PwxMTHk5OT4+Pjy8vKxsbGZmZn19fVERETj1tFMTEzbAJzq6urT0tIiIiJHR0coKCjY2NgKCgpAQEDNzc3FxcW7u7spNzTd3d3u+/upqaljY2OgoKCKioqCgoJvb296enpYWFhnZ2eOjo62trZ0dHT64PL/+f44ODj97PkTJSH1vuPrgskXFxfY5eWHk5L51O7lWbn2yefwpNfobsD86fjH1NSksLBVYV8fLyt7h4bqesXhOK7lVbjysd3wqNjsjM31wubvm9NCT001Q0AADwe3w8Nib22VoqFNWlgAGxbqg8FnAAAUDklEQVR4nO2de2OTyBbAUUqBABIoUkhK3q/W1rrWx7q6ddW7e/VWd7//t7lzzszAQIAMaax1yflDmwQI+eW85xFFKRcz8f3QrHhxL5Ki+YmpaXYY/ugb+bnFiJkmenuQt5E4NejE+5H38ZNLomd/x9qPu4+fXAxfeODplcftpV4SMUxrfuVxe6kVLc49DO0fdB8/uxQseW/YW4qfV0D7lqmPYXqt1GjDz0fogpk3Ey3xE90L/RYWRl5SyHR8Y+tr6QwgKY9uc0s/pYR6gePWVTahl34Ffuvy+bVPrG+JwPb17Buwb+MdfkbR1jhuGbBN3xMVOW5ZsDFDxvHlqzfn+Ie3lW/z/Lwehy0zbJ19/NfdbvcV/mVuk/gUMeZq9jZISJ3a+QGR7hP4c5sE0ixibF3jiHm1P7vA8b/wp9G8wiYYi1G/bSlkTKuPA5Q38GfzToWxjlGJt89Cf0YxQh0+8OsuBQlPNeaoEYzF6Ny2vMekafgflGMXn2uKINT1NSPWW1bQMI4fqDp2n8JzDTkmSUnmHrfMPXoYV58ys+6+hOeacfRCAeNTmoIqZsvMmtgfQODusfsanmvEgOTxaYx5/fHg4BP+FbYse1SoTf7KOT6D55pwJGUljzHnb8hVur/gs60bLaNG+YvIsVG8zmLMywNMQVEfk5ZFGc7x48GWHPU0xjxjXwU4yPapIysLD0SODeqZzDl+YonTn/CgferIOHY5R7DKBvU1cY60bOEOFhN5o33qSDme5zjK93tS5/ifrnC+4rctWCvwmc0sfWQcZa0ydY6fOEZsvHltyx0VLI1J1vIkx1G2j2v7zDm+Tk+n5VDLShkQyvFlCgLijOy4AsGIxJ4ciN9CG4NMOUfJca6EddLPU4zYdWtdRYhSxlGuk+3xlOcVP5mlji206nKOUuPXGrfqP9NzsccRttGqKzjKjJiGzKqzGINjEl5LZ/2VcZSZl+IRjnBY5hwx5bFbmIFTwfwxy3v+UqRmNoNVozq+yTlHJW7ZIGEmhTz8tdx8MxKrMTl6lneOLZwdxQXHnc9FjhJtCtunBWFm1b/C00lLnSMIHb8XOUq0KXymjm8K9WBbnaOCRYki9M1eyrQpTNafSGP1B3COZq9lM6NyQmvkDwLHzeU1V8eUPkxnMdqZgHOhHcTUQF9KlNceU8f/5pplcQubZYKEWJakSJ5IlNegjloWZGhZ3fYVnrTb8KvAcVN5DXOixLExzBzbHKpRdITyl8hxg58jVg2u4Ddx6oDe5lCN4iUQM1Iov20srw1WyrwRBrZanfFQgRxGU55yX/d0Y3mtJ7rYQv9AnrJ7rQ7VKAbOuTsXOdbrFkt6uDq+bG3LsSAxBuyPshxNGuCfCFbdxuHBdaHu7g3jSGJvfeRNaNLD1BGsuqWd26LQ2Yusq0041s9KYQ2zJ5lV623PeJhAwNZ4A2wjRzja4NN3YW6ZuQ/VVKAHZvCO+EaOxDsKaZJGQnWbmxM5wV7i0wM5jnR0i5Yy3WckVLe2Ab4mdMRKjiOdX0bbvtB0bHEDfE10rGg+SnGk1TjrajzdxxhRoO/A2WziiF02mrR3f1XM3j7GZKJhoPnEORo1DTA7hOYkPfSDovX2zlEUDDRPZDjq2MDlqePeOeYFpzGeH0hwxCiDozLdPxS9lROiasTGMcOPmzmSYoYc+IoGGWOfORYFV6tiTljP0Q51mzoAEmT23Yk1SdJAU88RO2bI+0NrJ0TViRnyQNN9mst7NCr8IRyGOXj3dXEbD4PUi17bsyDN54Em40jAhH7scwl1zybZo4YjYqSSye9bqiU9kJYPvWJpSOcCUI6GjuDMTL80m2CNYQuUD3QUJ7fa34jjxDQMM+lt6KX/28WDRdjQggSOsR965UM0mgG7qkC7LLdKnZzBjrfjlnvNmARiaEESTdMKbk7LPTx/9goK61zTUUgkjZb3f1gE6dIFMCh6bE1nbnR49PgiWM5XvXTrst/+KmyagMNcndlZT2nvvGYmHrq+7i8c43B59KAoz9UxHxfUxRFCE9BZketGfaXBNinaeDn518UlDbLqT7gLEqiUtgaRSsw1UQvDlBfOT7tQVdU9U+R3hTUO4YK3nBRk+vdtl6CE742QTJ1VDcf4As0XxmW4J8TliCNXVYOVIr955ITq+K1uenhMrtC51SV2LWwxW3IWuYFVx9FxnQUlmc4wA7vW1SgaAULZ5sUhveJtavQev6n7I3QMWls5RK3ceo7EgKM56iKf1YMTq0jKA490WZf3mF7xNuGdfRXOLS6xW2FbQMZqoKoyHFU3QmsyaVARdlGQX1y4A47P6SUe3+ISuxWKcRypqiRHVXWmwI6BtNNfuZAfzN4Bx+ie6SPGPG3KCMlxVIMFnMU1MgGAdpP6egccO/QS/VtcYpeCG4dqs0BtxFF1F3AeX/sP6U6j/WB3wFGZwxWmt7nCDgUjtYBRlqPqugBBp1Eb0knzrjkqXqdzX+pQrEaUswyjNEeikWDadAeuH8Px/giNtZaAMcfxQh3NRqrzvJSj6i7xCpADtp0jOsfTSC1yPJoNc60bMx6Pnhc50goGc52Wc0SrNnMYVagLheouy2QgHscXbu5YKG3AslvOEdOWmYjGUS2KQxs8FGVAydrDkSMeHpjUN7SbI7Zq+oKpBmoHvF2BYcoSdTMeiSeAZetJc46sqGvUrtHC3umwWbqo+X1rNZ1Ynbjp5A897neGw1OpQSdQRyNTL9cdA6lyiALK3iKLSw7cX6w14GjE/X6/x/qbw74o+QlDek+8oDcOWOzLnrPjYgHlD3vCBcaOkGwcz6WndemWeOKDxbD+k6E6DlMmzhS0o44iJ6mNU+N2IQ/WdXmO4XFFUoUyzg5ckocj/smTZXZMSiomD45yLUzIzAPWQwoXa1c/nkjovzFU1+9LrTMD+CEkI1XGoC9BEUniTXKQkQ4eUpqjtt5oz0mKxcKHK/zbnIuH8I6jR9kISnaKz8zxxXWKKNYmiquKGzteVZ1iQ7A+Zc4uGAEPCYogBJo9Zye6cP0kluUY1mPMPie1YmxC9PKHnLIjhvShoCmMXUq0TC5q77JTc2tHvfJzcJngkupVMDfklJEJOdPiIE1YGbdrjhoLRAbXzEz4UBp7XmiIH3KOZ3VvUT0UZ5ZYtCijUrcAjdeQ5o7BhDyWp0iEnNth54J+SOsj51MlSf64Y0MZFY6Y8EtVcrSj+veoapL26k8rO9XTE1wyPQ6oNjbFiCBpx9KFk3Xpfo9eCzKFwjkqQoBRx71E+K2gSo6iVl2sxqdxf2zl3GV5DpT3BUur7+u6f5o/80FuOEiPddO2wUEvkMRM3jXmQNK6HHNxDQpEucTHC8MwYeGm3xNFmHzFOD6epp9gVszZKzmmcjQWzunNshfK7HMsnDfJZQGx6CaEcJOtCNQRBPRtGmNEkFgKOdz/ag2WszOOleNca/a/7uQ3cpwUxi5Dl7+yWH/DfnbeeG3M0xSi+JA/KWx0ibVMFG6FEYKNieqc5RLy0ymOqhUDpcAxKDlwE8cS6011bm20NklPm5WOHNuZm2bfKN0vqmdZlqasYNjZahSp8yDxixiRmLOyMP+Q/s2+ZhyXZYfUczwsLd3TvKZoOI/5C6dlp4EM00vTm8Y9YyZREMyoXS6MLZwjlQG9ggMhJ3BmSoM93BtxdEsPqeV4UeFheBJVyKonBWUrk9TyR/gQ0h0/wgTaBgj9La2aKmQSYY3dI3rpdJSNuwmk0oTjUfkcjVqOlY0kVqU/z10zteoajAJIPAo0pk/iS9BRPAJhsbVVU4Wcu6oTKwnh6EJmJzu/pwnHilZNHcdqHhxZrmDmzm9YdRaVMTvsEB5wjuTThw7Q3F4dIWb7eA2Tc0x2z3FccUgNx1HNO7N8UHS5nO1s011z3vAlpBxDsMbIE7zjgMhmHRSPGUAKSgK2zVs/u+d4XHVIDce69jC3TuEpnutvDJImOxB6dylHnfwHc+0yKG9fvH+3ieLDb++/XWUkofFGABqL78axsmNVzfGs7p2N4yJrTmeDVYPwoB1mHCNT6QTBMOM4eHd5efL593qOV18uL/93+TYFqRHnQCpDbel+J46PKwNXNcfaaMHns2TfDy8IZe6bHbrKcRwGxLhTs766Prm8UT5/q+2Hf72+/l359kUwbA2VmuQ/WGjvnGN1w7CS43G9fbLaJO13cI+5qTWJMk4NO+VogEl6abQe3FyeXL+/Ofm91kV+OTn5fPP1f1eCYc++K8fqmr26T1H/1sxBjvhjg72T1AiO/oB7Bda9dSNwbULWQ8z65OT68vrvWrM+IXJ5/c9bgeMqYBzBLe2a41H1JSo5bvBzMT0qTe5ZSzSSum/tgnsF1MfFaLTQlI6zFMIMsWuAlLfrQgQndk2Ouc7smnAcO0QRp6PR6Hv4x0nVATUcK0s7KnpqmlRY7JjL3ficOwGhcjuFWi5j9O6f6+vLnDoO3r578e6hSPKKaOP19dtcwHaEOV+75lgzvlTJsT7McDs+5I8nG99JFNbsPUOObPllLxLTHsh7vr7Lqd/7fy6Jpb8VE8aH376+EPKeh9AXt9Ir7pxjjdOq5LjB0bHZS+k8XtZNk+wM+NwLYBuc2LXqk+J4matmCnn44NslWPr11zpLhx4FqWdU4ii+h13XXK6S44Z2cpEjuxXJqR06PxuXDUEePiTV3KKuKqTO8OT6c/UhwNGKYtr4+B5xpmYZya44Hm98p5KznyNHGPwn5bA2Uo2aLsXg7TWAvHxblwmREENqy9OA1TOh5O1Icjy+A470oVQWnh1+jCuF9IjOXpxEumLojx490stBXn0hJKsw4nmkwFZJBjF1SUIK/n3HfbM75Cg7JML1EZe49IIouiBqdNFTjEcoFSC/fr6qwEhP8xTzguQmERFI26R/+/AecXy+4Vby4vGz2XKXJAxtopeEAQWSlIO8eV+L8ZGm9Ml3oYUhXQ8ruyzuPnFkZ0nG6yxr9wTbG7ma4pUq5CDPca2hxjjC3PIstMj/XPM94si6ZpL5I6uGoFWpZ1OWTy/6ilbGcfAe7ZlzHNzkE8uHDD5TaSp2g71o7hFHdp2aykkU1uXApobpx2GSgCXakPl4ZRxvvoBKDr79jf9dnVw9LONIrntBXKJBrpb4foNVl/eIIxtDDORuPMhpr+npOk4HsGD1ealdv/tMAvWLv1+ckMLw5uSm1K4Noo6g4Ylumqb0HACQe8SRRQ65RLzsYAg4XqCaGLK9YiAZ3Pz+5csLkkR+Pfnyfj1og0ISCjNQR5mfoirIPeLIU/6qcaCcMOW9EJ/DDGgckfTZXMdIQ8sg/W9N9Ec6LBnBWVLNp8vfI44Km0MktaievUV+NR4uV1jAIuBthl4HMA4eeFup473iyOdkbui3gbBoXUiScFeoOAoIB2MbjJ4awXtLT0YR5D5x5JNSjjZ7eDb/vthdxiXDYyeKm0/cg+pSdSBZ8LbZrYMVEZWY7pQjH+jauHZ2/GDtPVHoL9CfBTintpFtk+NDNVhque0AGsimZtWdctT4AsoNHWA+X2BdcXGinTYLnJXWRCXhOh3HVUGdt9v6hRlIpWe9U47ZVNzaU02Ou8SR0uXXSzcYIVFZk1a8M4euZE+228yIzfCoHOu8W468J/7guOZcmw1xlY+IYUlszALXWeH+CjLrkBRtGBDycLy+5WbDDMJF1et3zJGn1zXtCi+dIln+keks50mkuhGdTl2Dkq4wtDtuQEIMDsdsu2czzzWqugN3zFGYZF+RjmfTSKuGdSnIPnF3QTBlDkszig2ewYDvOLVSA8Icr5ZsvbGWxrr5zyu8611zzGaSPnBKnHYcpC9Xjc+yPU8Uc05Iuo4zEX9tK7evKzQ4LDeCyad0J6Tb/IjmmN9XGiP1iaCed85REZYzHA5zH8voCStJSqdYK7DjCYYNy4AVwcDIdYKZ1Vv79T0jicdnKm445Szg4w7ha9v+Bz+M9M6iVS/una7cHIO756jkFjEuxjH80I7mxZ3c3oNVUyTpCoPQDVzcdXCGC1ndwHGcYDGbrKzxcGxZk7ORC8/ga84SjgxHDu5TuGXao1Qt5eMpxQ/gqFQt0RSkMlPHgQCY3a06M9xoYuJka4KJBETIf/wZJ0IPqk/hIAdcsr31zpnFBW85Kj+C4+aFcdU9cxxjYAvcnBkwsXvTRUB1TxSio8Fi2sdcZ0JRB41WKKyJUbYMME1xabJWV/KOC2ekMxs3WEg1x8rVxlQWNT6M5n9s7aobLU/xJvSeNSWG63CJosXc6uP3rMXziK2RPcPM5xabii7X7zXNo6jbr/LqIKz3Inw4GnMrJ0JzoZ54VPpav3J9+GH9AA4dmhrzRcCBO2fxWjN0n63783WD6oUWr1Ru9gHOHt6qSZHKaXFzgMxIbfhAR7VRDPuGYkVENXxjFy8s8s/f0+MHJVK7IQAKHZw6zTYucyLYvKc41mJ4YWee+U41wg9wO4xQGGWWdLTM162deWdDBySeTgp1QH9uScQ9bzWrOyyc5D3O8XIok5XQbQtDVdjiDHzhcm4NuYyns7zPdB38fnaxPbPZG1qWNYxN2aHvuxC4KeLZgtHUOpWdspTbjVQILDRYU3HzYYftSKq3/MfDi8LKu3AZFaN0qaQ75O5/EKkgHqvv4qWziSSpZmgwsP1/x2ZQOxXDT6hP94U8vARiEPHdhHTZGXotE49XynaflNFraTj4S8ed8X0rzb0yVokWZlurx+MZycKxIqTFIcnEl1a6bZbJtXcvZWIksZ7y0WCjNGs6n51NV8N+nGRW7PnJ3qTrRdP9sP7noczE1/e6KCF2Elf9jg8paWLppHQviq2Hfpjonm2wHzozbNNLyHP6HmJTMUxPT0IiPvyT5H6tay9E/g+Jk6Aa2O++bgAAAABJRU5ErkJggg==;" vertex="1" parent="1">
          <mxGeometry x="1110" y="150" width="169.87" height="80" as="geometry" />
        </mxCell>
      </root>
    </mxGraphModel>
  </diagram>
</mxfile>
